{"title":"Banished.S01E07.720p.HDTV.x264-ORGANiC.mkv","uid":11825349,"size":1265673359,"categoryP":"video","categoryS":"hd___tv_shows","magnet":"?xt=urn:btih:beee70322c1fe0912281b56964eb0c33a60387bc&amp;dn=Banished.S01E07.720p.HDTV.x264-ORGANiC.mkv&amp;tr=udp%3A%2F%2Ftracker.openbittorrent.com%3A80&amp;tr=udp%3A%2F%2Fopen.demonii.com%3A1337&amp;tr=udp%3A%2F%2Ftracker.coppersurfer.tk%3A6969&amp;tr=udp%3A%2F%2Fexodus.desync.com%3A6969","seeders":2,"leechers":0,"uploader":null,"files":1,"time":1429467312,"description":" &lt;a href=&quot;http://www.imdb.com/title/tt3508050/&quot; rel=&quot;nofollow&quot; target=&quot;_NEW&quot;&gt;http://www.imdb.com/title/tt3508050/&lt;/a&gt;\n\n\n             ####  #####   ####    ##   #    # #  ####    \n            #    # #    # #    #  #  #  ##   # # #    #   \n\t    #    # #    # #      #    # # #  # # #        \n\t    #    # #####  #  ### ###### #  # # # #        \n\t    #    # #   #  #    # #    # #   ## # #    #   \n\t     ####  #    #  ####  #    # #    # #  ####   \n\n\n\n\n\n\t\t\t     Now Showing !\nRelease Name: Banished.S01E07.720p.HDTV.x264-ORGANiC                       \n:::::::::::::::::::::::::::::::::::::::::::::::::::::::::::::::::::::::::::\nAir Date          : 2015-04-16                                             \nORGANiC RLS Date  : 2015-04-16                                             \nVideo Resolution  : 1280x720                                               \nAudio Stream      : 2ch, 192kbps                                           \nCRF Value         : 19.0                                                   \n:::::::::::::::::::::::::::::::::::::::::::::::::::::::::::::::::::::::::::\n\nFormat                                   : Matroska\nFormat version                           : Version 2\nFile size                                : 1.18 GiB\nDuration                                 : 59mn 10s\nOverall bit rate                         : 2 852 Kbps\nWriting application                      : x264.exe\nWriting library                          : mkv2rls x264-tv version built on 2015. febr. 22\n\nVideo\nID                                       : 1\nFormat                                   : AVC\nFormat/Info                              : Advanced Video Codec\nFormat profile                           : &lt;a class=&quot;__cf_email__&quot; href=&quot;/cdn-cgi/l/email-protection&quot; data-cfemail=&quot;dc94b5bbb49c90e8f2ed&quot;&gt;[email&amp;#160;protected]&lt;/a&gt;&lt;script cf-hash='f9e31' type=&quot;text/javascript&quot;&gt;\n/* &lt;![CDATA[ */!function(){try{var t=&quot;currentScript&quot;in document?document.currentScript:function(){for(var t=document.getElementsByTagName(&quot;script&quot;),e=t.length;e--;)if(t[e].getAttribute(&quot;cf-hash&quot;))return t[e]}();if(t&amp;&amp;t.previousSibling){var e,r,n,i,c=t.previousSibling,a=c.getAttribute(&quot;data-cfemail&quot;);if(a){for(e=&quot;&quot;,r=parseInt(a.substr(0,2),16),n=2;a.length-n;n+=2)i=parseInt(a.substr(n,2),16)^r,e+=String.fromCharCode(i);e=document.createTextNode(e),c.parentNode.replaceChild(e,c)}}}catch(u){}}();/* ]]&gt; */&lt;/script&gt;\nFormat settings, CABAC                   : Yes\nFormat settings, ReFrames                : 5 frames\nCodec ID                                 : V_MPEG4/ISO/AVC\nDuration                                 : 59mn 10s\nBit rate                                 : 2 603 Kbps\nWidth                                    : 1 280 pixels\nHeight                                   : 720 pixels\nDisplay aspect ratio                     : 16:9\nFrame rate mode                          : Constant\nFrame rate                               : 25.000 fps\nColor space                              : YUV\nChroma subsampling                       : 4:2:0\nBit depth                                : 8 bits\nScan type                                : Progressive\nBits/(Pixel*Frame)                       : 0.113\nStream size                              : 1.08 GiB (91%)\nWriting library                          : x264 core 146 r2538 121396c\nEncoding settings                        : cabac=1 / ref=5 / deblock=1:0:0 / analyse=0x3:0x113 / me=umh / subme=8 / psy=1 / psy_rd=1.00:0.00 / mixed_ref=1 / me_range=16 / chroma_me=1 / trellis=1 / 8x8dct=1 / cqm=0 / deadzone=21,11 / fast_pskip=1 / chroma_qp_offset=-2 / threads=12 / lookahead_threads=2 / sliced_threads=0 / nr=0 / decimate=1 / interlaced=0 / bluray_compat=0 / constrained_intra=0 / bframes=3 / b_pyramid=2 / b_adapt=2 / b_bias=0 / direct=3 / weightb=1 / open_gop=0 / weightp=2 / keyint=250 / keyint_min=25 / scenecut=40 / intra_refresh=0 / rc_lookahead=50 / rc=crf / mbtree=1 / crf=19.0 / qcomp=0.60 / qpmin=0 / qpmax=69 / qpstep=4 / ip_ratio=1.40 / aq=1:1.00\nLanguage                                 : English\nDefault                                  : Yes\nForced                                   : No\n\nAudio\nID                                       : 2\nFormat                                   : AC-3\nFormat/Info                              : Audio Coding 3\nMode extension                           : CM (complete main)\nFormat settings, Endianness              : Big\nCodec ID                                 : A_AC3\nDuration                                 : 59mn 10s\nBit rate mode                            : Constant\nBit rate                                 : 192 Kbps\nChannel(s)                               : 2 channels\nChannel positions                        : Front: L R\nSampling rate                            : 48.0 KHz\nBit depth                                : 16 bits\nCompression mode                         : Lossy\nStream size                              : 81.3 MiB (7%)\nLanguage                                 : English\nDefault                                  : Yes\nForced                                   : No","torrent":{"xt":"urn:btih:beee70322c1fe0912281b56964eb0c33a60387bc","amp;dn":"Banished.S01E07.720p.HDTV.x264-ORGANiC.mkv","amp;tr":["udp%3A%2F%2Ftracker.openbittorrent.com%3A80","udp%3A%2F%2Fopen.demonii.com%3A1337","udp%3A%2F%2Ftracker.coppersurfer.tk%3A6969","udp%3A%2F%2Fexodus.desync.com%3A6969"],"infoHash":"beee70322c1fe0912281b56964eb0c33a60387bc","infoHashBuffer":{"type":"Buffer","data":[190,238,112,50,44,31,224,145,34,129,181,105,100,235,12,51,166,3,135,188]},"announce":[],"urlList":[]}}